<?xml version="1.0" encoding="UTF-8"?>
<!DOCTYPE svg PUBLIC "-//W3C//DTD SVG 1.1//EN" "http://www.w3.org/Graphics/SVG/1.1/DTD/svg11.dtd">
<!-- Creator: CorelDRAW X7 -->
<svg xmlns="http://www.w3.org/2000/svg" xml:space="preserve" width="138.913mm" height="138.913mm" version="1.1" style="shape-rendering:geometricPrecision; text-rendering:geometricPrecision; image-rendering:optimizeQuality; fill-rule:evenodd; clip-rule:evenodd"
viewBox="0 0 2495 2495"
 xmlns:xlink="http://www.w3.org/1999/xlink">
 <defs>
  <style type="text/css">
   <![CDATA[
    .fil14 {fill:#E31E24}
    .fil4 {fill:#312929}
    .fil8 {fill:#4D4547}
    .fil1 {fill:#4EC7B4}
    .fil3 {fill:#52C6B4}
    .fil10 {fill:#61645D}
    .fil0 {fill:#7FD7C9}
    .fil12 {fill:#CAB8AA}
    .fil11 {fill:#D23008}
    .fil9 {fill:#ED500B}
    .fil13 {fill:#F2B114}
    .fil5 {fill:#FCB902}
    .fil2 {fill:#FCC807}
    .fil7 {fill:#FECB01}
    .fil6 {fill:#FFB200}
   ]]>
  </style>
 </defs>
 <g id="Layer_x0020_1">
  <metadata id="CorelCorpID_0Corel-Layer"/>
  <g id="_697472848">
   <circle class="fil0" cx="1247" cy="1247" r="1247"/>
   <path class="fil1" d="M2492 1164c2,28 3,55 3,83 0,636 -476,1161 -1090,1238l-80 -86c-7,-8 -15,-15 -23,-23 -39,-36 -87,-83 -113,-118l0 -5c1,0 1,0 2,0l-42 -46 67 -84 -6 -415 -651 -681 35 14c0,0 0,0 0,-1l567 2 14 229 112 45 0 -54 11 -218c112,-7 515,14 580,-9 47,-35 30,-126 30,-196 0,-95 25,-159 -78,-160 2,-43 6,-100 -14,-128l-5 -57c51,44 169,163 295,290l386 380z"/>
   <path class="fil2" d="M738 654l-16 46 115 -2 105 -178c20,-37 17,-46 53,-54 7,20 16,-24 2,26 -4,16 -101,159 -108,202 6,12 95,6 116,8 24,-35 47,-82 70,-121 14,-23 23,-41 37,-64 25,-46 10,-47 60,-51l-11 43c79,0 -12,-14 48,-28 6,-1 60,0 70,0l5 17c43,-35 -6,-23 56,-32 -16,71 -81,126 -94,190l-14 30c21,20 75,17 110,14 31,-41 105,-219 157,-234 3,7 24,-9 -10,50 -11,18 -19,32 -27,47 -20,35 -41,65 -57,98l-7 27c26,20 80,11 112,8l2 1c23,-36 46,-78 68,-116l50 -88c26,-41 -6,-14 35,-28l7 15c-1,38 5,4 -6,11 47,36 25,-33 99,-6 2,1 4,2 6,3l24 12 -4 -33 -954 -3c-11,55 -77,130 -99,190z"/>
   <path class="fil3" d="M1830 719l-5 117 -25 9 5 12 -7 78 -1079 3c-68,0 -66,-15 -64,-80 -5,-12 -51,-7 -28,-138l-32 2c-9,55 -12,244 5,275l1261 5c15,-45 12,-232 3,-280l-34 -3z"/>
   <path class="fil4" d="M594 1040l567 2 19 307 2 79 94 1 8 -54c1,-2 2,-5 4,-7l-1 -106 11 -218c112,-7 515,14 580,-9 47,-35 30,-126 30,-196 0,-95 25,-159 -78,-160l0 40 34 3c9,48 12,235 -3,280l-1261 -5c-17,-31 -14,-220 -5,-275l32 -2 4 -42c-100,5 -81,50 -81,143 0,64 -5,151 9,206l35 13zm605 312l-12 -319 85 3 -4 38 -12 294c-15,-15 -9,-8 -27,-17l-30 1z"/>
   <path class="fil5" d="M1666 491l-130 230 -116 210 134 1c14,-56 97,-173 126,-233 22,-27 40,-63 60,-96 17,-28 29,-61 53,-89 18,59 -25,96 -49,142 2,2 6,1 8,4 0,1 10,9 23,-5 23,-24 1,-17 0,-18 0,39 6,121 15,160l8 0 1 -249 -4 -48 -24 -12c-2,-1 -4,-2 -6,-3 -74,-27 -52,42 -99,6z"/>
   <path class="fil6" d="M1203 709c-18,69 -91,148 -120,222l132 0 127 -231c-35,3 -89,6 -110,-14l14 -30c-29,22 -17,30 -43,53z"/>
   <path class="fil6" d="M1029 719c-18,60 -86,149 -115,212l134 1c16,-64 99,-168 126,-236l-113 8 25 -70c-7,8 -6,4 -18,22 0,1 -10,21 -11,25 -12,25 -6,20 -28,38z"/>
   <path class="fil6" d="M1374 713l-123 218 132 0c19,-66 98,-159 127,-235 -32,3 -86,12 -112,-8l7 -27 -31 52z"/>
   <path class="fil6" d="M871 715l-125 216 133 0 126 -229c-21,-2 -110,4 -116,-8l-18 21z"/>
   <path class="fil6" d="M1744 656l-35 54c-17,56 -92,154 -121,221l133 0 69 -134c-9,-39 -15,-121 -15,-160 1,1 23,-6 0,18 -13,14 -23,6 -23,5 -2,-3 -6,-2 -8,-4z"/>
   <path class="fil7" d="M1161 509l-75 125 -25 70 113 -8c22,-26 105,-169 110,-198l-5 -17c-10,0 -64,-1 -70,0 -60,14 31,28 -48,28z"/>
   <path class="fil6" d="M660 770l8 157 42 0 127 -229 -115 2 16 -46c-18,19 -23,29 -35,58 -5,9 -7,20 -14,31 -12,19 1,2 -14,17l-15 10z"/>
   <path class="fil2" d="M662 701c37,-36 111,-177 143,-236l-137 0 -6 236z"/>
   <path class="fil8" d="M1199 1352l30 -1 1 -307c44,1 32,-9 38,30l4 -38 -85 -3 12 319z"/>
   <path class="fil9" d="M662 701l-2 69 15 -10c15,-15 2,2 14,-17 7,-11 9,-22 14,-31 12,-29 17,-39 35,-58 22,-60 88,-135 99,-190l-32 1c-32,59 -106,200 -143,236z"/>
   <path class="fil10" d="M1229 1351c18,9 12,2 27,17l12 -294c-6,-39 6,-29 -38,-30l-1 307z"/>
   <path class="fil9" d="M1005 702l35 -9 -11 26c22,-18 16,-13 28,-38 1,-4 11,-24 11,-25 12,-18 11,-14 18,-22l75 -125 11 -43c-50,4 -35,5 -60,51 -14,23 -23,41 -37,64 -23,39 -46,86 -70,121z"/>
   <path class="fil9" d="M837 698c36,0 19,-16 34,17l18 -21c7,-43 104,-186 108,-202 14,-50 5,-6 -2,-26 -36,8 -33,17 -53,54l-105 178z"/>
   <path class="fil11" d="M710 927l36 4 125 -216c-15,-33 2,-17 -34,-17l-127 229z"/>
   <path class="fil11" d="M1383 931l37 0 116 -210 9 -27 -33 3 -2 -1c-29,76 -108,169 -127,235z"/>
   <path class="fil11" d="M1554 932l34 -1c29,-67 104,-165 121,-221 -8,-19 8,-17 -29,-11 -29,60 -112,177 -126,233z"/>
   <path class="fil11" d="M1048 932l35 -1c29,-74 102,-153 120,-222l-6 -14 -23 1c-27,68 -110,172 -126,236z"/>
   <path class="fil9" d="M1342 700l20 -6c25,0 1,-5 12,19l31 -52c16,-33 37,-63 57,-98 8,-15 16,-29 27,-47 34,-59 13,-43 10,-50 -52,15 -126,193 -157,234z"/>
   <path class="fil9" d="M1284 498c-5,29 -88,172 -110,198l23 -1 6 14c26,-23 14,-31 43,-53 13,-64 78,-119 94,-190 -62,9 -13,-3 -56,32z"/>
   <path class="fil12" d="M1798 797l2 48 25 -9 5 -117 0 -40c2,-43 6,-100 -14,-128l-17 -3 -1 249z"/>
   <path class="fil11" d="M1215 931l36 0 123 -218c-11,-24 13,-19 -12,-19l-20 6 -127 231z"/>
   <path class="fil11" d="M879 931l35 0c29,-63 97,-152 115,-212l11 -26 -35 9 -126 229z"/>
   <path class="fil9" d="M1512 697l33 -3 -9 27 130 -230c11,-7 5,27 6,-11l-7 -15c-41,14 -9,-13 -35,28l-50 88c-22,38 -45,80 -68,116z"/>
   <path class="fil9" d="M1680 699c37,-6 21,-8 29,11l35 -54c24,-46 67,-83 49,-142 -24,28 -36,61 -53,89 -20,33 -38,69 -60,96z"/>
   <path class="fil11" d="M1721 931l39 -3c10,-28 13,-39 37,-59 -2,-15 -6,-12 8,-12l-5 -12 -2 -48 -8 0 -69 134z"/>
   <path class="fil13" d="M1760 928l37 -2 0 -57c-24,20 -27,31 -37,59z"/>
   <path class="fil14" d="M1230 1389l0 0c12,0 20,1 26,4 38,12 53,54 54,103l23 643c6,56 -41,103 -95,107l0 0c-1,0 -1,0 -2,0l0 0c-1,0 -2,0 -3,0l0 0c-1,0 -2,0 -3,0l0 0c0,0 -1,0 -2,0l0 0c-1,0 -2,0 -3,0l0 0c-1,0 -2,0 -2,0l-1 0c-53,-4 -100,-51 -95,-107l23 -643c2,-49 17,-91 55,-103 6,-3 14,-4 25,-4z"/>
  </g>
 </g>
</svg>
