<?xml version="1.0" encoding="UTF-8"?>
<!DOCTYPE svg PUBLIC "-//W3C//DTD SVG 1.1//EN" "http://www.w3.org/Graphics/SVG/1.1/DTD/svg11.dtd">
<!-- Creator: CorelDRAW X7 -->
<svg xmlns="http://www.w3.org/2000/svg" xml:space="preserve" width="138.913mm" height="138.913mm" version="1.1" style="shape-rendering:geometricPrecision; text-rendering:geometricPrecision; image-rendering:optimizeQuality; fill-rule:evenodd; clip-rule:evenodd"
viewBox="0 0 21405 21405"
 xmlns:xlink="http://www.w3.org/1999/xlink">
 <defs>
  <style type="text/css">
   <![CDATA[
    .fil12 {fill:#32A6B3}
    .fil11 {fill:#39A4B5}
    .fil3 {fill:#6B9031}
    .fil6 {fill:#7BC5C7}
    .fil7 {fill:#AADDDC}
    .fil9 {fill:#B8E7E3}
    .fil10 {fill:#C6E8E7}
    .fil8 {fill:#D23008}
    .fil5 {fill:#D80900}
    .fil4 {fill:#E9E3DB}
    .fil2 {fill:#F2F2ED}
    .fil1 {fill:#FFAE00}
    .fil0 {fill:#FFD200}
   ]]>
  </style>
 </defs>
 <g id="Layer_x0020_1">
  <metadata id="CorelCorpID_0Corel-Layer"/>
  <g id="_699105872">
   <circle class="fil0" cx="10702" cy="10702" r="10702"/>
   <path class="fil1" d="M21272 12389c-809,5109 -5233,9016 -10570,9016 -623,0 -1234,-54 -1829,-157 -54,-50 -121,-116 -207,-204 -276,-281 -406,-399 -630,-629 -418,-429 -793,-795 -1217,-1223 -423,-429 -795,-794 -1220,-1222l-1200 -1230 13047 11 -11 -1263 -1710 -22 -11 -2791 258 -5 -21 -2461 -2547 -13 6 -2335c407,216 352,239 1017,188 -215,-304 -615,-590 -917,-901 -326,-337 -726,-589 -1011,-976 116,-246 84,-1716 20,-2071 211,-29 127,-129 85,-319 204,135 1781,1706 3114,3043 3201,3210 2511,2554 4919,4925 122,119 262,271 427,437 95,95 162,144 208,202z"/>
   <path class="fil2" d="M12573 13418l-4 233 -14 832c-117,135 -9,74 -224,115 -8,2 -287,3 -313,3l-1603 -34c-123,-355 -29,-680 -37,-1044 -9,-442 -148,-562 -52,-1024 293,-165 2031,-159 2263,-25 70,328 57,414 -34,557l18 387zm-2170 -4299l-26 -968 1072 21 121 4 958 9c69,56 164,-92 97,532 -70,647 70,1460 -100,1535 -124,151 -1921,83 -2097,59 -185,-317 -88,-822 -25,-1192zm-2076 -969l43 -5 1107 57 7 977 -31 110 -28 980c-185,99 -188,84 -557,77 -398,-7 -1371,9 -1575,-80l-22 -959 -18 -139 -10 -1000 1084 -18zm-1900 -305l6 7618 753 22 26 -2696 0 -504c114,-81 -22,-43 166,-80l921 5 8 3048c72,221 14,72 129,211l-29 -3241 1016 -26c314,618 55,217 35,1084 -6,235 -1,474 -1,709 1,485 -22,966 39,1446 580,-247 3105,-106 3893,-108 -18,-1292 48,-1601 -107,-2834 -32,-251 -7,-675 -7,-945 0,-924 -108,-2974 33,-3761 -146,-339 -3331,-3205 -3419,-3250l-3462 3302z"/>
   <polygon class="fil3" points="4399,16740 17446,16751 17435,15488 15725,15466 9448,15480 7186,15485 6433,15463 4392,15505 "/>
   <path class="fil4" d="M9423 12202l8 100 9 485 8 2693 6277 -14 -11 -2791 -1811 -1c-558,3 -426,-36 -500,-168l-4 -2145 5 -165 6 -2335 -102 -68c-141,787 -33,2837 -33,3761 0,270 -25,694 7,945 155,1233 89,1542 107,2834 -788,2 -3313,-139 -3893,108 -61,-480 -38,-961 -39,-1446 0,-235 -5,-474 1,-709 20,-867 279,-466 -35,-1084z"/>
   <path class="fil5" d="M6427 7845l3462 -3302c88,45 3273,2911 3419,3250l102 68c407,216 352,239 1017,188 -215,-304 -615,-590 -917,-901 -326,-337 -726,-589 -1011,-976 -152,-90 -791,-710 -889,-831 -494,-317 -1244,-1302 -1721,-1507l-3380 3159c-277,263 -902,740 -1086,1060 742,33 550,58 1004,-208z"/>
   <path class="fil6" d="M7212 12789l-26 2696 2262 -5 -8 -2693 -935 14 -14 -521 940 22 -8 -100 -1016 26 29 3241c-115,-139 -57,10 -129,-211l-8 -3048 -921 -5c-188,37 -52,-1 -166,80l1066 -4 -56 516 -1010 -8z"/>
   <polygon class="fil5" points="13403,12506 15835,12540 15850,10351 13399,10361 "/>
   <path class="fil4" d="M11610 5341c98,121 737,741 889,831 116,-246 84,-1716 20,-2071l-880 0 -29 1240z"/>
   <path class="fil7" d="M10423 13630l968 5 12 876 -970 14 -10 -895zm-16 -599l-8 -551 1027 -2 -12 546 -11 412 -983 15 -13 -420zm2148 1452l-966 19 12 -863 968 12 4 -233 -980 12 -28 -417 -21 -536 1006 9 5 545c91,-143 104,-229 34,-557 -232,-134 -1970,-140 -2263,25 -96,462 43,582 52,1024 8,364 -86,689 37,1044l1603 34c26,0 305,-1 313,-3 215,-41 107,20 224,-115z"/>
   <path class="fil8" d="M13403 12506c74,132 -58,171 500,168l1811 1 258 -5 -21 -2461 -2547 -13 -5 165 2451 -10 -15 2189 -2432 -34z"/>
   <polygon class="fil6" points="9425,10269 9453,9289 8452,9301 8404,10263 "/>
   <polygon class="fil6" points="7293,10266 8282,10266 8280,9316 7271,9307 "/>
   <path class="fil6" d="M10423 10254l993 8 3 -912 -953 -49c-99,313 -63,625 -43,953z"/>
   <path class="fil9" d="M12525 10252l-980 2 63 -942 902 10 15 930zm-2102 2c-20,-328 -56,-640 43,-953l953 49 -3 912 -993 -8zm1000 -1488l-13 415c-331,7 -710,52 -1007,-62 -63,370 -160,875 25,1192 176,24 1973,92 2097,-59 170,-75 30,-888 100,-1535 67,-624 -28,-476 -97,-532l37 536 -50 460 -949 -8 -50 -438 54 -559 -121 -4c59,187 73,88 69,318 -9,517 -10,183 -95,276z"/>
   <polygon class="fil6" points="12525,10252 12510,9322 11608,9312 11545,10254 "/>
   <polygon class="fil6" points="10433,14525 11403,14511 11391,13635 10423,13630 "/>
   <polygon class="fil6" points="12555,14483 12569,13651 11601,13639 11589,14502 "/>
   <path class="fil10" d="M8319 8698l-39 493 -1027 -23 18 139 1009 9 2 950 -989 0c204,89 1177,73 1575,80 369,7 372,22 557,-77l-1021 -6 48 -962 1001 -12 31 -110 -1055 -3 -48 -454 -1 -466 -10 -111 -43 5 -7 128 -1 420z"/>
   <polygon class="fil6" points="8381,8722 8429,9176 9484,9179 9477,8202 8370,8145 8380,8256 9386,8236 9383,8754 "/>
   <path class="fil6" d="M11423 8766l-1001 -21 11 -513 951 18 39 516zm-1020 353c297,114 676,69 1007,62l13 -415c85,-93 86,241 95,-276 4,-230 -10,-131 -69,-318l-1072 -21 26 968z"/>
   <path class="fil6" d="M7253 9168l1027 23 39 -493c-236,77 -643,90 -968,42l-25 -520 994 58 7 -128 -1084 18 10 1000z"/>
   <polygon class="fil11" points="10407,13031 11414,13024 11426,12478 10399,12480 "/>
   <polygon class="fil11" points="11516,8735 12565,8721 12528,8185 11570,8176 "/>
   <polygon class="fil11" points="11565,13013 12555,13031 12550,12486 11544,12477 "/>
   <polygon class="fil11" points="7212,12789 8222,12797 8278,12281 7212,12285 "/>
   <polygon class="fil12" points="11423,8766 11384,8250 10433,8232 10422,8745 "/>
   <polygon class="fil12" points="8381,8722 9383,8754 9386,8236 8380,8256 "/>
   <path class="fil11" d="M8319 8698l1 -420 -994 -58 25 520c325,48 732,35 968,-42z"/>
   <polygon class="fil11" points="9440,12787 9431,12302 8491,12280 8505,12801 "/>
   <polygon class="fil6" points="12565,8721 11516,8735 11566,9173 12515,9181 "/>
   <polygon class="fil6" points="11414,13024 10407,13031 10420,13451 11403,13436 "/>
   <polygon class="fil6" points="12573,13418 12555,13031 11565,13013 11593,13430 "/>
   <path class="fil8" d="M11639 4101l880 0c211,-29 127,-129 85,-319 -331,-30 -821,-73 -1069,57 -32,478 -18,110 104,262z"/>
  </g>
 </g>
</svg>
