<?xml version="1.0" encoding="UTF-8"?>
<!DOCTYPE svg PUBLIC "-//W3C//DTD SVG 1.1//EN" "http://www.w3.org/Graphics/SVG/1.1/DTD/svg11.dtd">
<!-- Creator: CorelDRAW X7 -->
<svg xmlns="http://www.w3.org/2000/svg" xml:space="preserve" width="138.913mm" height="138.913mm" version="1.1" style="shape-rendering:geometricPrecision; text-rendering:geometricPrecision; image-rendering:optimizeQuality; fill-rule:evenodd; clip-rule:evenodd"
viewBox="0 0 5444 5444"
 xmlns:xlink="http://www.w3.org/1999/xlink">
 <defs>
  <style type="text/css">
   <![CDATA[
    .fil12 {fill:#D9DADA}
    .fil8 {fill:#268399}
    .fil3 {fill:#32A6B3}
    .fil9 {fill:#87B231}
    .fil4 {fill:#95D528}
    .fil11 {fill:#CAB8AA}
    .fil2 {fill:#EAE8E5}
    .fil7 {fill:#F4F2EC}
    .fil6 {fill:#F5ECE8}
    .fil5 {fill:#FDFBFD}
    .fil10 {fill:#FFAE00}
    .fil1 {fill:#FFAE00}
    .fil0 {fill:#FFD200}
   ]]>
  </style>
 </defs>
 <g id="Layer_x0020_1">
  <metadata id="CorelCorpID_0Corel-Layer"/>
  <g id="_699111120">
   <circle class="fil0" cx="2722" cy="2722" r="2722"/>
   <path class="fil1" d="M5430 3007c-143,1370 -1301,2437 -2708,2437 -106,0 -210,-6 -313,-18 -7,-10 -17,-21 -30,-35l-1138 -1122c34,-66 -18,-11 41,-29 342,131 631,165 948,-27 143,-87 210,-153 302,-280 53,-74 190,-305 151,-428 50,17 36,-16 73,129 80,315 348,596 678,680 999,252 1581,-896 1009,-1569 -348,-409 -731,-380 -1159,-271 90,-39 253,-251 309,-362 120,-237 85,-341 97,-609 -69,-194 -114,-171 -135,-326l101 73c17,12 494,475 525,506l1180 1194c47,44 57,35 69,57z"/>
   <path class="fil2" d="M3074 1174l-3 187c9,67 5,26 13,44 1,-4 3,-16 3,-14l9 -109c13,-46 7,-23 28,-50 79,40 134,188 80,261 10,-2 84,30 40,-92 -10,-27 -28,-51 -33,-73 -33,-146 -6,-43 13,-73 47,59 28,24 49,93 30,5 -6,25 70,-33 2,123 -37,105 -31,163l27 74 -127 1c197,39 103,-48 147,-177 134,53 108,358 82,472l-54 144c-58,116 -117,177 -202,251 -168,149 -414,222 -672,142 -53,-16 -111,-43 -150,-65 -9,-5 -45,-27 -62,-37 -162,-100 -196,-188 -192,-381 7,-321 121,-369 164,-428l14 -25c2,-4 4,-9 7,-12 71,-93 83,-24 126,-152l45 -1 6 141 65 -24c-36,-64 -35,-78 -4,-151 73,0 -1,-8 32,13 48,29 75,46 180,18 -29,-70 -12,-44 -75,-70 6,-3 14,-14 18,-8 4,5 13,-6 18,-8 203,-60 166,-1 369,-21zm-1237 729c-84,-447 31,-756 387,-1003 98,-68 272,-128 399,-139 -72,71 20,26 -105,59 -202,53 -387,161 -505,331 -213,306 -191,456 -176,752zm660 -1178l-183 52c-19,23 -9,16 -36,40 -10,8 -29,22 -35,25 -39,22 -55,23 -100,33 -90,85 -137,123 -216,217 -34,87 -47,63 -83,152 -22,55 -52,110 -66,158 -37,129 -24,256 -26,402 1,129 72,286 127,381 172,298 314,235 204,274 54,68 29,35 123,83 69,35 43,46 137,81 23,-56 -49,-42 62,-25 1,0 78,25 94,28 207,48 340,25 526,-24 107,-28 54,-13 77,9l61 -46c78,-43 95,0 121,-91 90,-39 253,-251 309,-362 120,-237 85,-341 97,-609 -3,-4 -7,-16 -8,-14l-42 -141c-24,-56 -50,-82 -75,-139 -43,-198 -329,-386 -501,-453 -77,-23 -183,-50 -280,-58 -131,-11 -167,21 -287,27z"/>
   <path class="fil3" d="M1288 4004c169,229 988,267 1191,-386 43,-141 78,-396 -21,-510 -2,63 16,9 -16,46 -57,-151 -249,-259 -465,-286 -392,-50 -781,217 -843,626 -64,423 134,444 159,488l-5 22z"/>
   <path class="fil4" d="M3136 3899c80,187 549,367 954,152 115,-61 250,-204 308,-335 64,-142 127,-399 46,-552 -115,-51 -79,-204 -420,-281 -373,-85 -739,94 -884,439 -34,81 -58,175 -59,282 -3,180 51,196 55,295z"/>
   <path class="fil5" d="M2029 1854c-4,197 94,364 259,466 18,11 55,34 64,39 40,22 99,50 153,66 264,82 516,8 688,-145 86,-76 147,-138 206,-256l55 -147c253,-915 -1429,-1221 -1425,-23z"/>
   <path class="fil6" d="M4444 3164c81,153 18,410 -46,552 -58,131 -193,274 -308,335 -405,215 -874,35 -954,-152 -163,-76 -260,-442 -208,-690 174,-818 1346,-800 1516,-45zm-1640 384c-72,-157 -14,-409 57,-566 219,-491 863,-681 1281,-400 -195,-62 -296,-108 -530,-87 -269,25 -385,133 -521,255 -21,19 -62,47 -86,73 -173,199 -205,465 -201,725zm480 -1074c-26,91 -43,48 -121,91l-61 46c-56,13 -83,50 -130,101 -129,141 -195,295 -238,486 -6,-5 -15,-10 -20,-13l-42 -31c-11,53 11,251 11,351 50,17 36,-16 73,129 80,315 348,596 678,680 999,252 1581,-896 1009,-1569 -348,-409 -731,-380 -1159,-271z"/>
   <path class="fil7" d="M1288 4004c-58,-23 -33,-4 -78,-48l-59 -61c-283,-291 -283,-849 113,-1149 502,-381 1154,18 1194,362 99,114 64,369 21,510 -203,653 -1022,615 -1191,386zm-445 -473c-121,-251 60,-561 177,-748 155,-247 710,-465 1116,-233l50 36c-285,-81 -585,-202 -968,74 -291,210 -383,515 -375,871zm439 709c342,131 631,165 948,-27 143,-87 210,-153 302,-280 53,-74 190,-305 151,-428 0,-100 -22,-298 -11,-351 0,-108 -70,-241 -120,-319 -37,-57 -54,-72 -100,-121 -42,-44 -57,-84 -109,-91 -94,-35 -68,-46 -137,-81 -94,-48 -69,-15 -123,-83 -252,-164 -984,-70 -1242,504 -106,236 -119,543 -10,791 115,263 240,346 451,486z"/>
   <path class="fil8" d="M1288 4004l5 -22c-25,-44 -223,-65 -159,-488 62,-409 451,-676 843,-626 216,27 408,135 465,286 32,-37 14,17 16,-46 -40,-344 -692,-743 -1194,-362 -396,300 -396,858 -113,1149l59 61c45,44 20,25 78,48z"/>
   <path class="fil9" d="M3136 3899c-4,-99 -58,-115 -55,-295 1,-107 25,-201 59,-282 145,-345 511,-524 884,-439 341,77 305,230 420,281 -170,-755 -1342,-773 -1516,45 -52,248 45,614 208,690z"/>
   <path class="fil10" d="M2672 3154l42 31c5,3 14,8 20,13 43,-191 109,-345 238,-486 47,-51 74,-88 130,-101 -23,-22 30,-37 -77,-9 -186,49 -319,72 -526,24 -16,-3 -93,-28 -94,-28 -111,-17 -39,-31 -62,25 52,7 67,47 109,91 46,49 63,64 100,121 50,78 120,211 120,319z"/>
   <path class="fil11" d="M843 3531c-8,-356 84,-661 375,-871 383,-276 683,-155 968,-74l-50 -36c-406,-232 -961,-14 -1116,233 -117,187 -298,497 -177,748z"/>
   <path class="fil11" d="M2804 3548c-4,-260 28,-526 201,-725 24,-26 65,-54 86,-73 136,-122 252,-230 521,-255 234,-21 335,25 530,87 -418,-281 -1062,-91 -1281,400 -71,157 -129,409 -57,566z"/>
   <path class="fil11" d="M1837 1903c-15,-296 -37,-446 176,-752 118,-170 303,-278 505,-331 125,-33 33,12 105,-59 -127,11 -301,71 -399,139 -356,247 -471,556 -387,1003z"/>
   <path class="fil12" d="M2282 2326l5 -21c-24,-45 -223,-66 -159,-488 63,-410 452,-676 844,-627 215,27 408,135 465,287 32,-37 13,16 16,-46 -40,-345 -693,-743 -1195,-363 -396,301 -395,859 -113,1150l59 60c46,44 20,26 78,48z"/>
  </g>
 </g>
</svg>
