<?xml version="1.0" encoding="UTF-8"?>
<!DOCTYPE svg PUBLIC "-//W3C//DTD SVG 1.1//EN" "http://www.w3.org/Graphics/SVG/1.1/DTD/svg11.dtd">
<!-- Creator: CorelDRAW X7 -->
<svg xmlns="http://www.w3.org/2000/svg" xml:space="preserve" width="138.913mm" height="138.913mm" version="1.1" style="shape-rendering:geometricPrecision; text-rendering:geometricPrecision; image-rendering:optimizeQuality; fill-rule:evenodd; clip-rule:evenodd"
viewBox="0 0 1673 1673"
 xmlns:xlink="http://www.w3.org/1999/xlink">
 <defs>
  <style type="text/css">
   <![CDATA[
    .fil1 {fill:#E31E24}
    .fil9 {fill:#50320B}
    .fil7 {fill:#744F0D}
    .fil8 {fill:#9B6519}
    .fil4 {fill:#CAB489}
    .fil11 {fill:#D1CAB3}
    .fil3 {fill:#D9AC58}
    .fil12 {fill:#E93605}
    .fil13 {fill:#ED500B}
    .fil6 {fill:#F1D8CE}
    .fil2 {fill:#F2B664}
    .fil10 {fill:#F82800}
    .fil5 {fill:#FD2500}
    .fil0 {fill:#FF4D32}
   ]]>
  </style>
 </defs>
 <g id="Layer_x0020_1">
  <metadata id="CorelCorpID_0Corel-Layer"/>
  <g id="_699103920">
   <circle class="fil0" cx="836" cy="836" r="836"/>
   <path class="fil1" d="M1662 971c-61,374 -370,666 -753,698 -21,-6 -19,-13 -82,-76 -14,-15 -31,-30 -50,-49 -39,-40 -38,-30 -44,-61 77,-122 102,-200 70,-376 -13,-71 -31,-134 -17,-214 12,-67 52,-120 96,-141l4 17 0 33 2 38c6,53 1,35 48,53 92,36 119,121 104,225 -25,176 -54,211 37,361l7 9c30,-29 62,-103 70,-154 10,-73 -10,-140 -21,-208 -11,-66 -4,-137 30,-181 67,-87 118,-20 118,-109 11,-19 17,-93 -4,-106l-2 -128 16 -2c68,73 133,134 200,200 31,31 62,66 98,99 23,21 31,31 49,49 6,5 14,13 24,23z"/>
   <path class="fil2" d="M514 727c66,4 133,77 148,137 44,86 -14,238 -22,330 -14,144 38,195 82,294 15,-13 8,-31 8,-74 0,-32 5,-51 -8,-80 -34,-17 -33,-46 2,-61 21,-55 -1,-499 7,-603l-250 -1 2 42 31 16z"/>
   <path class="fil3" d="M893 615l2 47 -413 -3 -1 10 250 1c-8,104 14,548 -7,603 20,3 34,5 35,31 0,27 -16,28 -37,30 13,29 8,48 8,80 0,43 7,61 -8,74l11 -5c77,-122 102,-200 70,-376 -13,-71 -31,-134 -17,-214 12,-67 52,-120 96,-141 6,-27 1,-12 13,-18l6 -1 1 -145c-5,7 -4,3 -8,14 0,1 -1,12 -1,13z"/>
   <path class="fil2" d="M1077 1479c12,-7 13,-1 11,-46 -1,-19 -1,-31 0,-49 -1,-2 -5,-8 -6,-9 -1,-1 -3,-4 -4,-5 -1,-1 -3,-4 -5,-5 -16,-20 -14,-26 -1,-41 10,-11 -13,1 16,-14 -5,-84 11,-426 -8,-473l-192 3c6,53 1,35 48,53 92,36 119,121 104,225 -25,176 -54,211 37,361z"/>
   <path class="fil4" d="M735 530l235 -3c-1,-6 2,-204 -11,-179 -1,1 -4,-2 -5,-2 -12,-3 -161,5 -222,-5l3 189z"/>
   <path class="fil3" d="M1072 1324l30 -2c12,22 11,21 0,41l-29 2c2,1 4,4 5,5 1,1 3,4 4,5 1,1 5,7 6,9 -1,18 -1,30 0,49 2,45 1,39 -11,46l7 9c30,-29 62,-103 70,-154 10,-73 -10,-140 -21,-208 -11,-66 -4,-137 30,-181 67,-87 118,-20 118,-109l-201 1c19,47 3,389 8,473 -29,15 -6,3 -16,14z"/>
   <path class="fil5" d="M980 527l3 47 0 11 59 0 160 2c-11,-33 -207,-222 -227,-232 -1,43 -8,135 5,172z"/>
   <polygon class="fil4" points="1088,734 1277,730 1275,602 1269,586 1202,587 1042,585 1042,591 1086,589 "/>
   <polygon class="fil6" points="488,528 630,530 626,342 491,344 "/>
   <path class="fil7" d="M1085 768l196 0 -1 35 -191 -1 -9 35 201 -1c11,-19 17,-93 -4,-106l-189 4 -52 -1 -7 1 -40 0 -4 0 -84 -1 -6 1c-3,12 -3,7 0,12l190 -1 0 23z"/>
   <path class="fil8" d="M482 658l0 -10 247 -1 2 -29 -249 -1 -3 -43 251 -1 0 -30 -248 -1 0 -12c-16,7 -10,-4 -11,60 0,37 -4,55 11,68z"/>
   <polygon class="fil7" points="730,573 983,574 980,527 970,527 735,530 711,529 661,530 630,530 488,528 482,530 482,542 730,543 "/>
   <path class="fil6" d="M901 733l84 1 1 -138 -17 -3c-16,-9 -51,-8 -67,-5l-1 145z"/>
   <polygon class="fil7" points="731,618 730,573 479,574 482,617 "/>
   <polygon class="fil7" points="482,658 482,659 895,662 893,615 731,618 729,647 482,648 "/>
   <path class="fil9" d="M731 618l162 -3c0,-1 1,-12 1,-13 4,-11 3,-7 8,-14 16,-3 51,-4 67,5 4,-10 -10,-7 14,-8l0 -11 -253 -1 1 45z"/>
   <polygon class="fil6" points="661,530 711,529 704,343 666,342 "/>
   <path class="fil6" d="M1036 733l52 1 -2 -145 -44 2c-14,-12 -7,3 -8,22 0,11 1,27 1,38 0,28 -1,55 1,82z"/>
   <polygon class="fil8" points="888,840 1080,837 1089,802 886,802 "/>
   <path class="fil10" d="M662 864c-15,-60 -82,-133 -148,-137l-11 2c24,25 45,46 75,73 10,8 24,26 36,38 14,13 27,26 41,41 11,-9 3,2 7,-17z"/>
   <polygon class="fil9" points="1089,802 1280,803 1281,768 1085,768 "/>
   <polygon class="fil7" points="886,802 1089,802 1085,768 886,769 "/>
   <polygon class="fil11" points="630,530 661,530 666,342 626,342 "/>
   <path class="fil6" d="M989 734l40 0 1 -138c-3,-1 -5,-3 -6,-2 -2,2 -8,-2 -12,-3 -5,-2 -14,-4 -21,-7l-2 150z"/>
   <polygon class="fil11" points="711,529 735,530 732,341 704,343 "/>
   <path class="fil8" d="M882 752l4 17 199 -1 0 -23 -190 1c-3,-5 -3,0 0,-12 -12,6 -7,-9 -13,18z"/>
   <path class="fil8" d="M713 1310c5,-28 -7,-20 29,-20l-2 19c0,-1 5,8 -17,7l-10 -6zm9 24c21,-2 37,-3 37,-30 -1,-26 -15,-28 -35,-31 -35,15 -36,44 -2,61z"/>
   <path class="fil11" d="M985 734l4 0 2 -150c7,3 16,5 21,7 4,1 10,5 12,3 1,-1 3,1 6,2l-1 138 7 -1c-2,-27 -1,-54 -1,-82 0,-11 -1,-27 -1,-38 1,-19 -6,-34 8,-22l0 -6 -59 0c-24,1 -10,-2 -14,8l17 3 -1 138z"/>
   <path class="fil8" d="M1085 1353c-27,3 -1,2 -13,-6 6,-10 -15,-14 13,-16 22,-1 11,9 13,16 -11,8 12,4 -13,6zm-12 12l29 -2c11,-20 12,-19 0,-41l-30 2c-13,15 -15,21 1,41z"/>
   <path class="fil12" d="M713 1310l10 6c22,1 17,-8 17,-7l2 -19c-36,0 -24,-8 -29,20z"/>
   <path class="fil13" d="M1072 1347c12,8 -14,9 13,6 25,-2 2,2 13,-6 -2,-7 9,-17 -13,-16 -28,2 -7,6 -13,16z"/>
  </g>
 </g>
</svg>
