<?xml version="1.0" encoding="UTF-8"?>
<!DOCTYPE svg PUBLIC "-//W3C//DTD SVG 1.1//EN" "http://www.w3.org/Graphics/SVG/1.1/DTD/svg11.dtd">
<!-- Creator: CorelDRAW X7 -->
<svg xmlns="http://www.w3.org/2000/svg" xml:space="preserve" width="138.913mm" height="138.913mm" version="1.1" style="shape-rendering:geometricPrecision; text-rendering:geometricPrecision; image-rendering:optimizeQuality; fill-rule:evenodd; clip-rule:evenodd"
viewBox="0 0 14135 14135"
 xmlns:xlink="http://www.w3.org/1999/xlink">
 <defs>
  <style type="text/css">
   <![CDATA[
    .fil1 {fill:#E31E24}
    .fil11 {fill:#268399}
    .fil2 {fill:#2C2928}
    .fil17 {fill:#342A2B}
    .fil6 {fill:#352828}
    .fil5 {fill:#372619}
    .fil12 {fill:#39A4B5}
    .fil13 {fill:#E9E3DB}
    .fil19 {fill:#EE6B53}
    .fil8 {fill:#F1CFB5}
    .fil7 {fill:#F4F2EC}
    .fil15 {fill:#FAE8DA}
    .fil18 {fill:#FAF6E7}
    .fil10 {fill:#FAFAFA}
    .fil4 {fill:#FCCC8D}
    .fil16 {fill:#FD9102}
    .fil14 {fill:#FE4927}
    .fil9 {fill:#FECB01}
    .fil0 {fill:#FF4D32}
    .fil3 {fill:#FFE146}
   ]]>
  </style>
 </defs>
 <g id="Layer_x0020_1">
  <metadata id="CorelCorpID_0Corel-Layer"/>
  <g id="_699119312">
   <circle class="fil0" cx="7068" cy="7068" r="7068"/>
   <path class="fil1" d="M14080 7953c-435,3485 -3409,6182 -7012,6182 -411,0 -813,-35 -1204,-102l-2678 -2662c-149,-146 -126,-49 -156,-259 300,108 616,309 921,432 2332,943 5414,720 7481,-604 -39,-260 -201,-599 -301,-860 -164,-424 -215,-364 -587,-553 -331,-169 -1170,-654 -1488,-738l-28 -1242c35,-172 173,-69 269,-418 66,-240 21,-401 -51,-566l-191 -12 124 -1256 42 -12 37 -366 309 -4 209 -47c-3,-320 2,-95 -92,-179l-24 7 -19 -657 -162 -39c-51,-353 -113,-444 -174,-716l-47 -188c330,157 3139,3045 3776,3679l625 624c482,486 417,394 421,556z"/>
   <path class="fil2" d="M3030 11112c300,108 616,309 921,432 2332,943 5414,720 7481,-604 -39,-260 -201,-599 -301,-860 -164,-424 -215,-364 -587,-553 -331,-169 -1170,-654 -1488,-738 -240,75 -535,185 -675,274l-806 1805c-138,266 -263,685 -436,832l-401 -843 -756 -1714c-215,-201 -430,-277 -739,-359 -444,163 -1085,533 -1532,770 -387,205 -394,141 -582,555 -108,240 -280,569 -336,830l237 173z"/>
   <path class="fil3" d="M6515 1784c-89,133 -70,220 -164,368 -235,31 -292,-47 -443,-105 -275,136 -113,164 -305,388l141 17 164 1714c-285,18 -360,-89 -611,-116 -195,-22 -523,-30 -724,-38l-6 662 5093 20 -19 -657 -162 -39c-164,34 -391,19 -595,55 -198,35 -265,91 -526,110 -15,-530 102,-1330 179,-1828l-30 -186 -193 -115c-230,33 -184,263 -565,44l-24 -278c-478,-121 -748,-50 -1210,-16z"/>
   <path class="fil4" d="M5243 8784c309,82 524,158 739,359 7,-121 -34,-66 81,-102 68,-325 -130,-809 51,-1088 141,-138 1789,-153 1940,6 172,255 59,823 -10,1138l249 -42 88 8c140,-89 435,-199 675,-274l-28 -1242c35,-172 173,-69 269,-418 66,-240 21,-401 -51,-566l-191 -12c-331,212 -78,778 -643,738 -184,103 -649,74 -855,-80 -256,-193 -176,-467 -494,-559 -221,152 -232,416 -473,580 -205,139 -655,155 -822,59 -251,10 -328,-42 -408,-280 -78,-231 -39,-356 -224,-459 -249,46 -271,213 -225,503 42,264 123,311 284,442l48 1289z"/>
   <path class="fil4" d="M7672 6039c80,-58 -109,-95 433,-39 61,7 189,10 238,19 217,40 121,36 200,95l-652 4c-341,-26 -124,-4 -219,-79zm-1095 0c-133,142 -678,78 -871,65 77,-55 -115,-50 419,-103 202,-19 323,-77 452,38zm2129 -760l-3343 7 -92 986c249,34 603,-9 910,22 288,29 600,131 836,152 214,19 581,-100 828,-134 378,-51 621,-51 998,-23l-137 -1010z"/>
   <path class="fil5" d="M5768 7289l-62 -48c-42,-28 -51,-24 -98,-62 -114,-91 -81,-48 -119,-185 -182,-663 147,-647 637,-630 229,8 461,51 622,195 33,252 -81,475 -230,599 -203,168 -477,97 -750,131zm2644 0c-269,-32 -572,21 -756,-127 -115,-93 -380,-548 -107,-688 295,-151 1051,-169 1169,33 31,165 32,328 -20,493 -64,200 -164,186 -286,289zm-3276 -739c185,103 146,228 224,459 80,238 157,290 408,280 167,96 617,80 822,-59 241,-164 252,-428 473,-580 318,92 238,366 494,559 206,154 671,183 855,80 565,40 312,-526 643,-738l124 -1256 42 -12 -78 2 -437 -6 137 1010c-377,-28 -620,-28 -998,23 -247,34 -614,153 -828,134 -236,-21 -548,-123 -836,-152 -307,-31 -661,12 -910,-22l92 -986 -288 -9c-70,276 -5,1036 61,1273z"/>
   <path class="fil6" d="M6376 8165c547,50 821,66 1364,6l216 -66c-34,389 -279,811 -648,756 -85,-170 -47,-220 -147,-372l-176 61c-133,191 -11,519 -462,214 -173,-117 -287,-358 -310,-665l163 66zm-313 876c240,67 578,143 876,132l450 -2 655 -74c69,-315 182,-883 10,-1138 -151,-159 -1799,-144 -1940,-6 -181,279 17,763 -51,1088z"/>
   <path class="fil7" d="M5075 5277l288 9 3343 -7 437 6 28 -371c-709,38 -1379,68 -2108,64 -604,-4 -1469,-102 -1995,-68l7 367z"/>
   <path class="fil8" d="M5075 5277l-7 -367c526,-34 1391,64 1995,68 729,4 1399,-26 2108,-64l-28 371 78 -2 37 -366 309 -4 146 -66 -29 -160 -24 7 -5093 -20 11 8c-76,85 -78,-102 -73,184l462 51c37,262 -23,215 108,360z"/>
   <path class="fil9" d="M4578 4682l-11 -8 6 -662c201,8 529,16 724,38 251,27 326,134 611,116l-164 -1714 -141 -17c-409,229 -750,904 -835,1542l-186 86 -4 619z"/>
   <path class="fil9" d="M9479 3998c-51,-353 -113,-444 -174,-716 -143,-165 -219,-374 -351,-539 -126,-159 -256,-301 -417,-408 -77,498 -194,1298 -179,1828 261,-19 328,-75 526,-110 204,-36 431,-21 595,-55z"/>
   <path class="fil4" d="M5984 6607c164,-30 87,-74 224,15 152,100 46,-12 82,158l97 -183c65,59 204,215 -9,259 -261,54 -6,28 -111,-48l-258 24 -114 41c-105,-113 -78,-23 -114,-204l203 -62zm-216 682c273,-34 547,37 750,-131 149,-124 263,-347 230,-599 -161,-144 -393,-187 -622,-195 -490,-17 -819,-33 -637,630 38,137 5,94 119,185 47,38 56,34 98,62l62 48z"/>
   <path class="fil4" d="M7873 6608c386,-82 2,6 339,42 84,-45 41,-121 196,65 -132,258 -670,313 -705,-52 152,-142 28,-36 170,-55zm539 681c122,-103 222,-89 286,-289 52,-165 51,-328 20,-493 -118,-202 -874,-184 -1169,-33 -273,140 -8,595 107,688 184,148 487,95 756,127z"/>
   <path class="fil10" d="M7463 9433c-224,277 -139,318 -69,699 41,220 72,566 181,736l806 -1805 -88 -8c-171,184 -305,466 -450,711 -238,-91 -83,-199 -380,-333z"/>
   <path class="fil11" d="M7139 11700c173,-147 298,-566 436,-832 -109,-170 -140,-516 -181,-736 -70,-381 -155,-422 69,-699l-74 -262 -450 2 5 15 221 37 -26 2475z"/>
   <path class="fil10" d="M5982 9143l756 1714c103,-137 122,-464 162,-664 63,-315 160,-463 -34,-722l-98 -37c-93,154 -179,248 -293,350l-412 -743c-115,36 -74,-19 -81,102z"/>
   <path class="fil12" d="M6866 9471c194,259 97,407 34,722 -40,200 -59,527 -162,664l401 843 26 -2475 -221 -37c-47,106 -80,126 -78,283z"/>
   <path class="fil13" d="M8044 9097l-655 74 74 262c297,134 142,242 380,333 145,-245 279,-527 450,-711l-249 42z"/>
   <path class="fil13" d="M6866 9471c-2,-157 31,-177 78,-283l-5 -15c-298,11 -636,-65 -876,-132l412 743c114,-102 200,-196 293,-350l98 37z"/>
   <path class="fil4" d="M7740 8171c-120,234 -271,232 -579,318 100,152 62,202 147,372 369,55 614,-367 648,-756l-216 66z"/>
   <path class="fil14" d="M6985 8550l176 -61c308,-86 459,-84 579,-318 -543,60 -817,44 -1364,-6 131,277 268,181 495,302 91,49 57,33 114,83z"/>
   <path class="fil4" d="M6985 8550c-57,-50 -23,-34 -114,-83 -227,-121 -364,-25 -495,-302l-163 -66c23,307 137,548 310,665 451,305 329,-23 462,-214z"/>
   <path class="fil15" d="M8212 6650c-43,131 -46,234 -205,211 -135,-20 -134,-105 -134,-253 -142,19 -18,-87 -170,55 35,365 573,310 705,52 -155,-186 -112,-110 -196,-65z"/>
   <path class="fil5" d="M5706 6104c193,13 738,77 871,-65 -129,-115 -250,-57 -452,-38 -534,53 -342,48 -419,103z"/>
   <path class="fil5" d="M7672 6039c95,75 -122,53 219,79l652 -4c-79,-59 17,-55 -200,-95 -49,-9 -177,-12 -238,-19 -542,-56 -353,-19 -433,39z"/>
   <path class="fil16" d="M8314 2034c-180,-158 -174,-2 -419,-13 -135,-267 60,-103 -170,-221l24 278c381,219 335,-11 565,-44z"/>
   <path class="fil16" d="M5908 2047c151,58 208,136 443,105 94,-148 75,-235 164,-368l-161 18 -68 229c-173,0 -378,-121 -378,16z"/>
   <path class="fil17" d="M8212 6650c-337,-36 47,-124 -339,-42 0,148 -1,233 134,253 159,23 162,-80 205,-211z"/>
   <path class="fil6" d="M6009 6832l258 -24 23 -28c-36,-170 70,-58 -82,-158 -137,-89 -60,-45 -224,-15l25 225z"/>
   <path class="fil18" d="M6009 6832l-25 -225 -203 62c36,181 9,91 114,204l114 -41z"/>
   <path class="fil15" d="M6290 6780l-23 28c105,76 -150,102 111,48 213,-44 74,-200 9,-259l-97 183z"/>
   <path class="fil19" d="M9567 4913l209 -47c-3,-320 2,-95 -92,-179l29 160 -146 66z"/>
  </g>
 </g>
</svg>
