<?xml version="1.0" encoding="UTF-8"?>
<!DOCTYPE svg PUBLIC "-//W3C//DTD SVG 1.1//EN" "http://www.w3.org/Graphics/SVG/1.1/DTD/svg11.dtd">
<!-- Creator: CorelDRAW X7 -->
<svg xmlns="http://www.w3.org/2000/svg" xml:space="preserve" width="138.913mm" height="138.913mm" version="1.1" style="shape-rendering:geometricPrecision; text-rendering:geometricPrecision; image-rendering:optimizeQuality; fill-rule:evenodd; clip-rule:evenodd"
viewBox="0 0 3258 3258"
 xmlns:xlink="http://www.w3.org/1999/xlink">
 <defs>
  <style type="text/css">
   <![CDATA[
    .fil1 {fill:#002F51}
    .fil0 {fill:#004F7E}
    .fil10 {fill:#303031}
    .fil9 {fill:#342A2B}
    .fil11 {fill:#50320B}
    .fil14 {fill:#A8CB67}
    .fil8 {fill:#D1DFA4}
    .fil7 {fill:#F41400}
    .fil13 {fill:#F4F2EC}
    .fil4 {fill:#F9A603}
    .fil12 {fill:#FAF6E7}
    .fil5 {fill:#FC3A09}
    .fil3 {fill:#FCB902}
    .fil2 {fill:#FD9102}
    .fil6 {fill:#FFB200}
   ]]>
  </style>
 </defs>
 <g id="Layer_x0020_1">
  <metadata id="CorelCorpID_0Corel-Layer"/>
  <g id="_693582528">
   <circle class="fil0" cx="1629" cy="1629" r="1629"/>
   <path class="fil1" d="M3250 1469c5,53 8,106 8,160 0,900 -729,1629 -1629,1629 -70,0 -138,-4 -206,-13l-457 -464c-6,-5 -10,-8 -32,-17l0 -15 -64 -65 -6 0c-5,-7 -10,-14 -14,-21l-40 -39c-9,-7 -20,-13 -32,-18l-1 -16 -39 -39 -11 -1c-37,-55 -38,-40 -74,-84 -2,-2 -5,-6 -7,-9l313 -1 3 -642 1660 0 0 -317 -1976 3 41 -31c-49,-48 -142,-130 -182,-190l27 4 2201 -1 55 -2 -4 -270c45,24 97,85 126,117 38,40 85,84 120,120 45,47 78,79 120,120 20,21 38,39 59,61 12,13 15,18 28,30l13 11z"/>
   <path class="fil2" d="M758 1173c-8,-81 1,-77 45,-123 237,-33 117,299 -45,123zm1738 -1c-88,101 -200,38 -171,-65 26,-91 190,-98 171,65zm-1965 95l24 -27 2181 -1 -1 -225c-97,-12 -875,-11 -937,11 -1,59 -9,62 -39,89 -61,4 -148,5 -209,2 -86,-3 -78,-46 -81,-126l-935 0 -3 277z"/>
   <path class="fil3" d="M816 1656l1807 -2 1 -157 -1975 5c26,36 122,147 167,154z"/>
   <path class="fil4" d="M831 1697c31,9 95,82 118,114l13 3 1660 0 1 -160 -1807 2 15 41z"/>
   <path class="fil5" d="M646 2457l313 -1 3 -642 -13 -3 -2 617c-44,17 -107,16 -143,1l-3 -738 30 6 -15 -41c-45,-7 -141,-118 -167,-154l1975 -5 -1 157 -1 160 0 -317 -1976 3c-13,56 -12,898 0,957z"/>
   <path class="fil6" d="M1798 1025c62,-22 840,-23 937,-11l1 225 -2181 1 -24 27 1 16 2201 -1 -2 -292 -930 -3 -3 38z"/>
   <path class="fil7" d="M949 1811c-23,-32 -87,-105 -118,-114l-30 -6 3 738c36,15 99,16 143,-1l2 -617z"/>
   <polygon class="fil8" points="1770,1001 1499,999 1498,1071 1772,1070 "/>
   <path class="fil9" d="M1469 990c3,80 -5,123 81,126 61,3 148,2 209,-2 30,-27 38,-30 39,-89l3 -38c-33,5 -10,-11 -31,14l2 69 -274 1 1 -72c-18,-9 14,-6 -30,-9z"/>
   <polygon class="fil10" points="2733,1282 2788,1280 2784,1010 2731,990 "/>
   <path class="fil10" d="M505 1279l27 4 -1 -16 3 -277 -46 4c-11,58 -6,94 -6,152 0,42 -16,115 23,133z"/>
   <path class="fil11" d="M2397 1071l30 1 43 35c4,64 1,44 -25,82 -125,15 -127,-78 -48,-118zm99 101c19,-163 -145,-156 -171,-65 -29,103 83,166 171,65z"/>
   <path class="fil11" d="M829 1071l32 1c48,26 52,31 41,100l-42 24 -29 1c-70,-41 -65,-82 -2,-126zm-71 102c162,176 282,-156 45,-123 -44,46 -53,42 -45,123z"/>
   <path class="fil12" d="M2427 1072c-2,47 3,86 -14,121 -3,-4 -7,-13 -8,-11l-14 -48c0,-15 4,-46 6,-63 -79,40 -77,133 48,118 26,-38 29,-18 25,-82l-43 -35z"/>
   <path class="fil12" d="M860 1196l42 -24c11,-69 7,-74 -41,-100l-1 124z"/>
   <path class="fil13" d="M831 1197l-2 -126c-63,44 -68,85 2,126z"/>
   <polygon class="fil14" points="831,1197 860,1196 861,1072 829,1071 "/>
   <path class="fil14" d="M2427 1072l-30 -1c-2,17 -6,48 -6,63l14 48c1,-2 5,7 8,11 17,-35 12,-74 14,-121z"/>
  </g>
 </g>
</svg>
