<?xml version="1.0" encoding="UTF-8"?>
<!DOCTYPE svg PUBLIC "-//W3C//DTD SVG 1.1//EN" "http://www.w3.org/Graphics/SVG/1.1/DTD/svg11.dtd">
<!-- Creator: CorelDRAW X7 -->
<svg xmlns="http://www.w3.org/2000/svg" xml:space="preserve" width="138.913mm" height="138.913mm" version="1.1" style="shape-rendering:geometricPrecision; text-rendering:geometricPrecision; image-rendering:optimizeQuality; fill-rule:evenodd; clip-rule:evenodd"
viewBox="0 0 2035 2035"
 xmlns:xlink="http://www.w3.org/1999/xlink">
 <defs>
  <style type="text/css">
   <![CDATA[
    .fil1 {fill:#002F51}
    .fil0 {fill:#004F7E}
    .fil25 {fill:#054873}
    .fil26 {fill:#155170}
    .fil23 {fill:#162F4A}
    .fil10 {fill:#167684}
    .fil7 {fill:#268399}
    .fil12 {fill:#2E8FA6}
    .fil13 {fill:#32A6B3}
    .fil16 {fill:#39A4B5}
    .fil14 {fill:#483734}
    .fil24 {fill:#4C8EAA}
    .fil15 {fill:#50320B}
    .fil19 {fill:#5D512B}
    .fil17 {fill:#6A8691}
    .fil3 {fill:#6B9031}
    .fil18 {fill:#744F0D}
    .fil20 {fill:#7BC5C7}
    .fil11 {fill:#87B231}
    .fil8 {fill:#95D528}
    .fil5 {fill:#AEA06E}
    .fil21 {fill:#B7AF90}
    .fil2 {fill:#CAB489}
    .fil22 {fill:#CAB8AA}
    .fil4 {fill:#EBEBEA}
    .fil9 {fill:#FDFBFD}
    .fil6 {fill:#FFFEFF}
   ]]>
  </style>
 </defs>
 <g id="Layer_x0020_1">
  <metadata id="CorelCorpID_0Corel-Layer"/>
  <g id="_693592704">
   <circle class="fil0" cx="1018" cy="1018" r="1018"/>
   <path class="fil1" d="M2035 996c0,7 0,14 0,22 0,562 -455,1017 -1017,1017 -33,0 -65,-1 -96,-4 -79,-87 -404,-412 -434,-435 42,-8 608,-1 641,-11l2 -235 0 -19 439 -2 2 -243 0 -261c29,-42 77,-123 76,-190 -22,-4 -38,-6 -52,-13 -4,-12 -15,-16 -25,-25l2 -50c38,11 349,338 391,379 20,20 45,41 65,62 2,3 4,5 6,8z"/>
   <path class="fil2" d="M1244 738l326 -4 0 -47c3,-1 6,-4 7,-3 1,2 6,-3 10,-6 10,-8 2,1 9,-10l0 -46c-4,-12 -15,-16 -25,-25l2 -50 -22 -7 -311 0c17,40 11,152 4,198z"/>
   <path class="fil2" d="M806 998l323 -2 1 -56 26 0 0 -45c-4,-33 -1,-15 -24,-35 -2,-28 7,-53 -16,-63 -56,12 -255,8 -319,3 22,52 5,139 9,198z"/>
   <path class="fil3" d="M806 1210l0 134 325 6 0 -19 -1 -7 -5 -236c-30,16 -33,33 -63,53 -25,17 -44,26 -75,38 -47,18 -124,32 -181,31z"/>
   <path class="fil3" d="M808 1188c73,2 148,-17 204,-44 52,-25 110,-76 129,-120 -8,-9 -8,10 -12,-28l-323 2 2 5 0 185z"/>
   <polygon class="fil4" points="484,1587 530,1588 534,1358 679,1357 680,1588 808,1588 805,1350 486,1351 "/>
   <path class="fil2" d="M808 1588l316 -1 -4 -231 -34 5 -1 216 -137 -1c-5,-63 11,-166 -7,-217 -43,-3 -96,7 -136,-9l3 238z"/>
   <path class="fil5" d="M484 1587l2 -236 319 -1c40,16 93,6 136,9 18,51 2,154 7,217l137 1 1 -216 34 -5 4 231 5 -2 2 -235 -325 -6 -132 0 -137 0 -53 -2 0 245z"/>
   <path class="fil4" d="M975 553l145 0 0 175 -147 -1 2 -174zm-45 179l45 5 146 2 123 -1c7,-46 13,-158 -4,-198l-302 0 -9 3 1 189z"/>
   <path class="fil4" d="M679 815l0 175 -146 2 1 -177 145 0zm127 183c-4,-59 13,-146 -9,-198l-299 2 -4 0c-18,46 -8,142 -7,195l319 1z"/>
   <polygon class="fil6" points="530,1588 680,1588 679,1357 534,1358 "/>
   <polygon class="fil2" points="1248,1324 1390,1324 1389,1091 1248,1089 "/>
   <polygon class="fil5" points="1390,1324 1526,1323 1525,1091 1389,1091 "/>
   <path class="fil7" d="M1199 894l3 32 43 2 139 -23 1 -165c157,0 134,-9 140,15 9,33 -12,42 9,64 19,-12 35,-31 37,-60l-1 -25 -326 4 4 159c-7,44 -3,15 -11,28l-38 -31z"/>
   <polygon class="fil4" points="1130,1324 1248,1324 1248,1089 1130,1089 "/>
   <path class="fil8" d="M537 1344l137 0c13,-41 11,-120 -2,-154 -52,-4 -91,-37 -129,-54 -12,12 -8,2 -12,23l6 185z"/>
   <polygon class="fil9" points="534,815 533,992 679,990 679,815 "/>
   <path class="fil10" d="M1353 945c52,-16 14,-5 30,3l0 134 147 0 -3 -216c-25,19 -50,35 -80,48 -26,11 -73,17 -94,31z"/>
   <polygon class="fil9" points="973,727 1120,728 1120,553 975,553 "/>
   <path class="fil11" d="M670 1164c27,23 97,25 138,24l0 -185 -133 0c6,26 18,150 -5,161z"/>
   <path class="fil8" d="M533 1094c14,19 37,32 59,44 29,16 46,26 78,26 23,-11 11,-135 5,-161l-139 -1 -3 92z"/>
   <path class="fil3" d="M919 768l-35 2c-67,3 -141,0 -208,0 -35,0 -70,0 -105,0 -46,-1 -74,-13 -73,32l299 -2c64,5 263,9 319,-3l1 -18c-33,-16 -98,-8 -143,-8l-50 -6 -5 3z"/>
   <path class="fil10" d="M1384 905c61,-16 117,-49 150,-86 -21,-22 0,-31 -9,-64 -6,-24 17,-15 -140,-15l-1 165z"/>
   <path class="fil12" d="M938 540l302 0 311 0c3,-25 0,-28 -29,-30l-247 1c-94,-3 -239,-11 -328,-1l-9 30z"/>
   <path class="fil13" d="M1117 779l-1 18c23,10 14,35 16,63 23,20 20,2 24,35l43 -1 38 31c8,-13 4,16 11,-28l-4 -159 -123 1 -4 40z"/>
   <path class="fil7" d="M1305 948l-15 1 -44 0 0 134 137 -1 0 -134c-16,-8 22,-19 -30,-3l-48 3z"/>
   <path class="fil11" d="M674 1344l132 0 0 -134c-45,0 -94,-3 -134,-20 13,34 15,113 2,154z"/>
   <path class="fil14" d="M1596 668c10,-5 10,-4 18,-7 -4,33 -12,82 -43,98 -2,29 -18,48 -37,60 -33,37 -89,70 -150,86l-139 23c6,18 7,-4 2,12 -1,1 -5,9 -6,11l64 -3 48 -3c21,-14 68,-20 94,-31 30,-13 55,-29 80,-48l45 -41c29,-42 77,-123 76,-190 -22,-4 -38,-6 -52,-13l0 46z"/>
   <path class="fil15" d="M1156 940l17 11 -32 73c-19,44 -77,95 -129,120 -56,27 -131,46 -204,44l-2 22c57,1 134,-13 181,-31 31,-12 50,-21 75,-38 30,-20 33,-37 63,-53l21 -30c19,-39 36,-58 47,-109l48 2c1,-2 5,-10 6,-11 5,-16 4,6 -2,-12l-43 -2 -3 -32 -43 1 0 45z"/>
   <path class="fil11" d="M484 1342l53 2 -6 -185c4,-21 0,-11 12,-23 -1,-1 -3,-3 -4,-4 -1,-1 -3,-3 -4,-4l-39 -42 -14 0 2 256z"/>
   <path class="fil16" d="M1146 1058l-3 27 103 -2 0 -134 44 0 15 -1 -64 3 -48 -2c-11,51 -28,70 -47,109z"/>
   <polygon class="fil7" points="1527,866 1530,1082 1572,1086 1572,825 "/>
   <polygon class="fil2" points="1526,1323 1564,1321 1567,1092 1525,1091 "/>
   <path class="fil17" d="M1248 1089l141 2 136 0 42 1 -3 229 -38 2 -136 1 -142 0 -118 0 0 -235 118 0zm-123 -1l5 236 1 7 439 -2 2 -243 -42 -4 -147 0 -137 1 -103 2 3 -27 -21 30z"/>
   <path class="fil18" d="M496 1086l39 42c1,1 3,3 4,4 1,1 3,3 4,4 38,17 77,50 129,54 40,17 89,20 134,20l2 -22c-41,1 -111,-1 -138,-24 -32,0 -49,-10 -78,-26 -22,-12 -45,-25 -59,-44 -24,-13 -30,-25 -45,-52 -6,12 -7,2 -3,23 1,2 10,19 11,21z"/>
   <path class="fil19" d="M482 1086l14 0c-1,-2 -10,-19 -11,-21 -4,-21 -3,-11 3,-23l-6 -12c-21,-37 -41,-61 -42,-107l16 0 3 -45c-25,25 -20,6 -50,21 1,81 47,127 73,187z"/>
   <path class="fil20" d="M974 771c45,0 110,-8 143,8l4 -40 -146 -2 -1 34z"/>
   <path class="fil21" d="M459 878l-3 45c5,13 0,6 7,13l21 67 52 -1 139 1 133 0 -2 -5 -319 -1c-1,-53 -11,-149 7,-195 -13,11 -12,-24 -12,58l-23 18z"/>
   <path class="fil19" d="M884 770l35 -2c-13,-32 -28,-57 -37,-96 12,-13 -4,-4 18,-8l0 -39c-23,8 -27,4 -48,17 2,62 28,83 32,128z"/>
   <path class="fil11" d="M482 1030l6 12c15,27 21,39 45,52l3 -92 -52 1 -2 27z"/>
   <path class="fil22" d="M900 625l0 39c11,27 -2,7 22,23l0 45 8 0 -1 -189c-9,21 -4,34 -8,62 -27,14 -11,-6 -21,20z"/>
   <path class="fil23" d="M1596 668c-7,11 1,2 -9,10 -4,3 -9,8 -10,6 -1,-1 -4,2 -7,3l0 47 1 25c31,-16 39,-65 43,-98 -8,3 -8,2 -18,7z"/>
   <path class="fil24" d="M1129 996c4,38 4,19 12,28l32 -73 -17 -11 -26 0 -1 56z"/>
   <path class="fil25" d="M919 768l5 -3 -2 -33 0 -45c-24,-16 -11,4 -22,-23 -22,4 -6,-5 -18,8 9,39 24,64 37,96z"/>
   <path class="fil26" d="M482 1030l2 -27 -21 -67c-7,-7 -2,0 -7,-13l-16 0c1,46 21,70 42,107z"/>
   <polygon class="fil16" points="924,765 974,771 975,737 930,732 922,732 "/>
  </g>
 </g>
</svg>
