<?xml version="1.0" encoding="UTF-8"?>
<!DOCTYPE svg PUBLIC "-//W3C//DTD SVG 1.1//EN" "http://www.w3.org/Graphics/SVG/1.1/DTD/svg11.dtd">
<!-- Creator: CorelDRAW X7 -->
<svg xmlns="http://www.w3.org/2000/svg" xml:space="preserve" width="138.913mm" height="138.913mm" version="1.1" style="shape-rendering:geometricPrecision; text-rendering:geometricPrecision; image-rendering:optimizeQuality; fill-rule:evenodd; clip-rule:evenodd"
viewBox="0 0 7893 7893"
 xmlns:xlink="http://www.w3.org/1999/xlink">
 <defs>
  <style type="text/css">
   <![CDATA[
    .fil14 {fill:#167684}
    .fil10 {fill:#268399}
    .fil7 {fill:#312929}
    .fil8 {fill:#32A6B3}
    .fil16 {fill:#4D4547}
    .fil13 {fill:#54B0B4}
    .fil36 {fill:#5D512B}
    .fil4 {fill:#6B9031}
    .fil11 {fill:#7BC5C7}
    .fil22 {fill:#857C79}
    .fil15 {fill:#87B231}
    .fil38 {fill:#928E8D}
    .fil20 {fill:#95D528}
    .fil9 {fill:#96CCCD}
    .fil19 {fill:#A86395}
    .fil35 {fill:#AA6956}
    .fil37 {fill:#AEA06E}
    .fil5 {fill:#B5259D}
    .fil26 {fill:#B5B3AE}
    .fil27 {fill:#CE9196}
    .fil30 {fill:#D80900}
    .fil1 {fill:#DE270B}
    .fil28 {fill:#EAEDF2}
    .fil23 {fill:#EDEDED}
    .fil29 {fill:#F0766A}
    .fil34 {fill:#F2CC4E}
    .fil3 {fill:#F2F2ED}
    .fil12 {fill:#F41400}
    .fil21 {fill:#F45549}
    .fil2 {fill:#F4F2EC}
    .fil33 {fill:#F5ECE8}
    .fil31 {fill:#F6EDF2}
    .fil32 {fill:#FAE8DA}
    .fil17 {fill:#FB3500}
    .fil25 {fill:#FCE576}
    .fil6 {fill:#FDD401}
    .fil24 {fill:#FDE242}
    .fil18 {fill:#FED506}
    .fil0 {fill:#FF4D32}
   ]]>
  </style>
 </defs>
 <g id="Layer_x0020_1">
  <metadata id="CorelCorpID_0Corel-Layer"/>
  <g id="_696429328">
   <circle class="fil0" cx="3946" cy="3946" r="3946"/>
   <path class="fil1" d="M7892 3897c0,17 1,33 1,49 0,1899 -1341,3484 -3127,3862 -111,-34 -149,-127 -235,-214 -88,-90 -217,-212 -322,-317 -122,-122 -192,-184 -305,-304 -109,-116 -226,-207 -319,-309l62 -71c129,-39 168,-91 275,-160 351,106 253,457 740,-191 72,-95 260,-319 306,-417 141,-122 281,-396 435,-543l42 -71 451 -597 51 -73 61 -30 14 -71 245 -319 87 -79c33,-41 45,-63 69,-117l29 -35c39,-26 16,16 70,-56 31,-42 28,-53 43,-106 38,-20 17,14 52,-31 49,-65 17,-13 30,-81 53,-28 12,7 55,-36 8,-8 44,-56 51,-65 62,-79 47,-45 83,-148l69 -63 99 -153c65,-77 53,101 54,-100 134,81 386,387 534,523l279 271c10,13 17,31 21,52z"/>
   <path class="fil2" d="M994 3278c133,-106 241,-195 379,-295 141,-102 251,-223 408,-298l5 -69 910 -376c111,-67 11,-62 223,-89 98,-12 196,-20 293,-33 159,-23 423,-32 544,-94 162,-32 707,65 894,88 173,15 137,-30 304,37 78,31 162,64 246,100 168,72 338,143 509,204 211,33 508,320 689,457 94,72 160,107 220,198 47,9 31,0 77,28 13,8 52,41 65,51 52,41 102,85 145,117l99 -153c12,-229 -83,-251 -208,-349 -99,-77 -190,-146 -296,-225 -166,-123 -399,-334 -627,-398 -60,-19 -87,-25 -144,-54 -105,-54 -44,-20 -83,-66 -148,-11 -438,-172 -642,-223 -631,-157 -1646,-159 -2273,36 -313,98 -927,368 -1164,549 -168,128 -313,241 -491,381 -65,50 -197,138 -221,216 -27,89 6,217 139,260z"/>
   <path class="fil3" d="M3814 6056c-1,-267 320,-228 231,63l-151 26 -80 -89zm-253 -972l-42 108 -149 10c-91,142 4,0 -57,150l-158 4 11 176 -104 26c-36,45 -31,15 -26,78 1,3 25,81 30,99 -6,6 -14,12 -18,16 -97,93 -75,58 -83,128 68,127 215,286 311,415 99,131 179,308 371,299 129,-39 168,-91 275,-160 351,106 253,457 740,-191 72,-95 260,-319 306,-417 -125,-23 -313,-201 -420,-281 -80,-60 -333,-227 -376,-301 -81,-35 -22,0 -107,-60 -33,-23 -49,-37 -81,-61 -84,-63 -89,-88 -172,-99l-93 94c-50,-16 -56,-28 -102,-39 -35,-8 -29,-11 -56,6z"/>
   <path class="fil4" d="M4714 2218l-213 556c135,-9 297,82 420,134 77,33 136,54 206,83 103,44 119,86 194,35 67,-41 43,-48 98,-122 41,-56 60,-79 98,-133 76,-107 168,-173 192,-318 -171,-61 -341,-132 -509,-204 -84,-36 -168,-69 -246,-100 -167,-67 -131,-22 -304,-37l89 52 -25 54z"/>
   <path class="fil5" d="M1781 2685l182 436c10,13 26,29 44,58 21,37 11,23 28,59l162 -16 612 -255c5,-103 -36,-715 -113,-727l-910 376 -5 69z"/>
   <path class="fil2" d="M2809 2967l-612 255c-74,43 -137,30 -134,108 -46,91 -213,186 -310,265 -111,90 -217,183 -339,250l20 86 59 1c215,-143 382,-294 594,-446 79,-126 -61,-63 112,-142 59,-27 137,-52 208,-82 134,-57 283,-124 429,-168l2 -71c120,-35 127,-45 249,-31 60,-49 146,-45 256,-61 123,-19 169,-34 295,-21l16 -82 753 97c46,-22 66,-35 97,-59l672 286c106,-6 43,-9 137,-25 155,143 729,519 806,651 82,20 53,8 128,67 49,38 69,51 116,86l60 -6 29 -35c-18,-66 5,-34 -26,-75 -120,-58 -261,-187 -388,-284 -89,-68 -321,-217 -356,-292 -90,-35 -12,7 -109,-56 -34,-22 -52,-36 -83,-61 -74,-60 -68,-77 -169,-96 -75,51 -91,9 -194,-35 -70,-29 -129,-50 -206,-83 -123,-52 -285,-143 -420,-134 -149,38 -320,-9 -470,-26l-324 -37c-121,33 -20,55 -194,82 -147,23 -608,99 -692,51l-12 123z"/>
   <path class="fil6" d="M2696 2240c77,12 118,624 113,727l12 -123c84,48 545,-28 692,-51 174,-27 73,-49 194,-82 -41,-66 -30,-32 -23,-139 5,-60 19,-105 28,-176 16,-133 28,-241 44,-372 -121,62 -385,71 -544,94 -97,13 -195,21 -293,33 -212,27 -112,22 -223,89z"/>
   <path class="fil7" d="M994 3278c9,84 35,92 87,160 38,52 76,100 114,147 80,101 130,207 219,260 122,-67 228,-160 339,-250 97,-79 264,-174 310,-265l-100 -209 -182 -436c-157,75 -267,196 -408,298 -138,100 -246,189 -379,295z"/>
   <path class="fil8" d="M5176 3152c-6,126 -45,137 -108,215 -32,40 -43,59 -77,99l-52 52c-2,-4 -9,7 -14,10l-92 146 333 238 471 -87c153,-23 336,-68 482,-47 -77,-132 -651,-508 -806,-651 -94,16 -31,19 -137,25z"/>
   <path class="fil9" d="M4142 4527c-13,108 -255,368 -330,496 83,11 88,36 172,99 32,24 48,38 81,61 85,60 26,25 107,60 75,-72 818,-142 943,-134l-91 -100c-180,-149 -647,-450 -753,-590l-44 0 -19 95 -66 13z"/>
   <path class="fil10" d="M5321 3026c101,19 95,36 169,96 31,25 49,39 83,61 97,63 19,21 109,56 75,-50 866,-133 936,-131 -60,-91 -126,-126 -220,-198 -181,-137 -478,-424 -689,-457 -24,145 -116,211 -192,318 -38,54 -57,77 -98,133 -55,74 -31,81 -98,122z"/>
   <path class="fil11" d="M4643 3832l15 89c-73,48 -268,324 -330,422 136,61 195,164 349,231 49,-50 801,-130 941,-143l-49 -51c-5,-4 -12,-10 -17,-14l-759 -577c-100,45 -47,67 -150,43z"/>
   <path class="fil5" d="M2087 3486c7,5 18,4 21,17 2,12 15,12 19,17 40,54 6,-4 35,59l132 340 83 163c31,-48 -13,-30 104,-80l450 -183 -95 -725c-146,44 -295,111 -429,168 -71,30 -149,55 -208,82 -173,79 -33,16 -112,142z"/>
   <path class="fil12" d="M3707 2711l324 37 683 -530 25 -54 -89 -52c-187,-23 -732,-120 -894,-88 -16,131 -28,239 -44,372 -9,71 -23,116 -28,176 -7,107 -18,73 23,139z"/>
   <path class="fil11" d="M4172 5243c43,74 296,241 376,301 107,80 295,258 420,281 141,-122 281,-396 435,-543 -99,-22 -72,-14 -154,-90 -77,-70 -50,-68 -134,-83 -125,-8 -868,62 -943,134z"/>
   <path class="fil13" d="M4677 4574c18,43 33,45 86,85l597 450c89,71 51,29 85,102l451 -597c-111,-38 -171,-130 -278,-183 -140,13 -892,93 -941,143z"/>
   <path class="fil10" d="M5166 3912c106,93 252,204 375,291 113,79 281,237 384,280l97 -43 245 -319 96 -190c-47,-35 -67,-48 -116,-86 -75,-59 -46,-47 -128,-67 -146,-21 -329,24 -482,47l-471 87z"/>
   <path class="fil14" d="M5682 3239c35,75 267,224 356,292 127,97 268,226 388,284 59,-13 25,-3 68,-35 5,-4 11,-11 15,-15l56 -37c21,-64 -31,14 22,-60 47,-67 24,-30 60,-52 21,-69 31,-83 70,-135 13,-17 25,-35 38,-49 59,-61 18,-23 81,-65l69 -63c-43,-32 -93,-76 -145,-117 -13,-10 -52,-43 -65,-51 -46,-28 -30,-19 -77,-28 -70,-2 -861,81 -936,131z"/>
   <path class="fil15" d="M4407 2925c1,97 -103,337 -149,444 -4,11 -23,54 -27,61 -43,74 -18,34 -58,74l9 54c28,-47 11,-15 71,-36l337 152c37,-54 -23,-12 59,-58 2,-1 76,-30 80,-32 102,-44 79,-45 196,-56 5,-3 12,-14 14,-10l52 -52c34,-40 45,-59 77,-99 63,-78 102,-89 108,-215l-672 -286c-31,24 -51,37 -97,59z"/>
   <path class="fil16" d="M1493 3932c29,99 48,106 105,179 47,59 66,85 102,130 142,181 131,224 249,260 115,-86 213,-152 304,-237 -49,-53 -32,2 -40,-91 -2,-28 7,-45 10,-71 9,-61 14,-114 19,-177l52 -6 -132 -340c-29,-63 5,-5 -35,-59 -4,-5 -17,-5 -19,-17 -3,-13 -14,-12 -21,-17 -212,152 -379,303 -594,446z"/>
   <path class="fil17" d="M3638 2910l-58 626 487 52c-75,-70 100,-54 -101,-59 11,-2 37,-8 79,-46 82,-74 -2,-31 109,-94 27,68 32,-70 19,115 40,-40 15,0 58,-74 4,-7 23,-50 27,-61 46,-107 150,-347 149,-444l-753 -97 -16 82z"/>
   <path class="fil18" d="M3087 2992c-122,-14 -129,-4 -249,31l-2 71 95 725 -21 -16 9 -111 588 -66 87 -681c-155,-27 -335,80 -507,47z"/>
   <path class="fil19" d="M2441 4280c15,91 185,510 261,569 18,-38 1,-25 48,-54 30,-20 66,-29 103,-43 69,-26 111,-42 180,-74l5 -109 -87 -613 -74 3 -450 211 14 110z"/>
   <path class="fil20" d="M4075 3719c46,71 15,67 -15,143 -27,68 -40,95 -61,145 -34,79 -94,212 -107,297l335 115 44 0 57 -76c62,-98 257,-374 330,-422l-15 -89c-614,-255 -375,-181 -568,-113z"/>
   <path class="fil21" d="M3527 3762l-62 585 180 38 199 21 48 -102c13,-85 73,-218 107,-297 21,-50 34,-77 61,-145 30,-76 61,-72 15,-143l-385 -49 -116 -6c-23,31 -22,-29 -47,98z"/>
   <path class="fil22" d="M1976 4608l463 599c36,-82 233,-212 304,-242l-41 -116c-76,-59 -246,-478 -261,-569 -158,85 -314,267 -465,328z"/>
   <path class="fil23" d="M3560 3626l130 44 385 49c193,-68 -46,-142 568,113 103,24 50,2 150,-43l759 577c5,4 12,10 17,14l49 51c107,53 167,145 278,183l51 -73 -22 -58c-103,-43 -271,-201 -384,-280 -123,-87 -269,-198 -375,-291l-333 -238 -35 63 -208 -63 -337 -152c-60,21 -43,-11 -71,36 -48,42 49,55 -115,30l-487 -52 -20 90z"/>
   <path class="fil24" d="M2954 3908c85,111 65,418 126,579 124,8 229,-8 320,-59 0,-179 -13,-13 65,-81l62 -585 -555 69 -18 77z"/>
   <path class="fil25" d="M2951 3956l87 613 304 -60c75,9 48,14 85,36 -54,136 36,52 -353,118l0 141 81 552 158 -4c61,-150 -34,-8 57,-150l149 -10 -167 -8 104 -691c1,-102 -13,27 3,-64l186 -44 -180 -38c-78,68 -65,-98 -65,81 -91,51 -196,67 -320,59 -61,-161 -41,-468 -126,-579l-3 48z"/>
   <path class="fil26" d="M2478 5247l487 632c8,-70 -14,-35 83,-128 4,-4 12,-10 18,-16 -5,-18 -29,-96 -30,-99 -5,-63 -10,-33 26,-78 -90,-10 -63,-7 -103,-110 -21,-54 -34,-97 -55,-148 -36,-85 -88,-218 -131,-298l-8 91c-69,34 -82,54 -141,101 -99,79 -43,73 -146,53z"/>
   <path class="fil27" d="M2773 5002c43,80 95,213 131,298 21,51 34,94 55,148 40,103 13,100 103,110l104 -26 -11 -176 -81 -552 -52 3 -278 118 29 77z"/>
   <path class="fil28" d="M4271 4419c106,140 573,441 753,590l91 100c84,15 57,13 134,83 82,76 55,68 154,90l42 -71c-34,-73 4,-31 -85,-102l-597 -450c-53,-40 -68,-42 -86,-85 -154,-67 -213,-170 -349,-231l-57 76z"/>
   <path class="fil29" d="M3519 5192l42 -108c69,-113 200,-402 206,-558l-311 -33 -104 691 167 8z"/>
   <path class="fil20" d="M3767 4526c-6,156 -137,445 -206,558 27,-17 21,-14 56,-6 46,11 52,23 102,39l93 -94c75,-128 317,-388 330,-496l-278 -102 -97 101z"/>
   <path class="fil30" d="M4031 2748c150,17 321,64 470,26l213 -556 -683 530z"/>
   <path class="fil31" d="M2377 4082l18 95 -142 87c-91,85 -189,151 -304,237 -10,13 -23,41 -25,43l52 64c151,-61 307,-243 465,-328l-14 -110 450 -211c23,-57 27,-72 33,-156l21 16 -450 183c-117,50 -73,32 -104,80z"/>
   <path class="fil32" d="M2910 3803c-6,84 -10,99 -33,156l74 -3 3 -48 18 -77 555 -69c25,-127 24,-67 47,-98l116 6 -130 -44 -53 0 -588 66 -9 111z"/>
   <path class="fil33" d="M3645 4385l-186 44c-16,91 -2,-38 -3,64l311 33 97 -101 278 102 66 -13 19 -95 -335 -115 -48 102 -199 -21z"/>
   <path class="fil33" d="M2702 4849l41 116c-71,30 -268,160 -304,242l39 40c103,20 47,26 146,-53 59,-47 72,-67 141,-101l8 -91 -29 -77 278 -118 11 -129c-69,32 -111,48 -180,74 -37,14 -73,23 -103,43 -47,29 -30,16 -48,54z"/>
   <path class="fil34" d="M3087 2992c172,33 352,-74 507,-47l-87 681 53 0 20 -90 58 -626c-126,-13 -172,2 -295,21 -110,16 -196,12 -256,61z"/>
   <path class="fil32" d="M3038 4569l-5 109 -11 129 52 -3 0 -141c389,-66 299,18 353,-118 -37,-22 -10,-27 -85,-36l-304 60z"/>
   <path class="fil7" d="M2253 4264l142 -87 -18 -95 -83 -163 -52 6c-5,63 -10,116 -19,177 -3,26 -12,43 -10,71 8,93 -9,38 40,91z"/>
   <path class="fil35" d="M4012 6063c-136,40 -125,23 -126,-107 145,1 111,-27 126,107zm-118 82l151 -26c89,-291 -232,-330 -231,-63l80 89z"/>
   <path class="fil4" d="M4590 3674l208 63 35 -63 92 -146c-117,11 -94,12 -196,56 -4,2 -78,31 -80,32 -82,46 -22,4 -59,58z"/>
   <path class="fil12" d="M4067 3588c164,25 67,12 115,-30l-9 -54c13,-185 8,-47 -19,-115 -111,63 -27,20 -109,94 -42,38 -68,44 -79,46 201,5 26,-11 101,59z"/>
   <path class="fil36" d="M4012 6063c-15,-134 19,-106 -126,-107 1,130 -10,147 126,107z"/>
   <path class="fil37" d="M6647 3616c53,-28 12,7 55,-36 8,-8 44,-56 51,-65 62,-79 47,-45 83,-148 -63,42 -22,4 -81,65 -13,14 -25,32 -38,49 -39,52 -49,66 -70,135z"/>
   <path class="fil37" d="M6426 3815c31,41 8,9 26,75 39,-26 16,16 70,-56 31,-42 28,-53 43,-106l-56 37c-4,4 -10,11 -15,15 -43,32 -9,22 -68,35z"/>
   <path class="fil27" d="M6267 4121l87 -79c33,-41 45,-63 69,-117l-60 6 -96 190z"/>
   <path class="fil19" d="M2063 3330c-3,-78 60,-65 134,-108l-162 16c-17,-36 -7,-22 -28,-59 -18,-29 -34,-45 -44,-58l100 209z"/>
   <polygon class="fil38" points="5925,4483 5947,4541 6008,4511 6022,4440 "/>
   <path class="fil27" d="M6565 3728c38,-20 17,14 52,-31 49,-65 17,-13 30,-81 -36,22 -13,-15 -60,52 -53,74 -1,-4 -22,60z"/>
  </g>
 </g>
</svg>
